<?xml version="1.0" encoding="UTF-8" standalone="no"?>
<svg width="30px" height="58px" viewBox="0 0 30 58" version="1.1" xmlns="http://www.w3.org/2000/svg" xmlns:xlink="http://www.w3.org/1999/xlink">
    <!-- Generator: Sketch 41.1 (35376) - http://www.bohemiancoding.com/sketch -->
    <title>Group 4</title>
    <desc>Created with Sketch.</desc>
    <defs>
        <polygon id="path-1" points="29.074257 0.000117444231 5.12453571e-05 0.000117444231 5.12453571e-05 60.1314465 29.074257 60.1314465 29.074257 0.000117444231"></polygon>
    </defs>
    <g id="Page-1" stroke="none" stroke-width="1" fill="none" fill-rule="evenodd">
        <g id="Desktop-HD-Copy" transform="translate(-452.000000, -195.000000)">
            <g id="Group-4" transform="translate(437.000000, 192.000000)">
                <g id="carrot-(1)" transform="translate(15.000000, 0.000000)">
                    <mask id="mask-2" fill="white">
                        <use xlink:href="#path-1"></use>
                    </mask>
                    <g id="Clip-2"></g>
                    <path d="M6.5062507,13.1036561 L6.5062507,13.1036561 C4.52316095,10.8373544 3.8629169,8.46392854 3.64389647,7.06921332 C5.35880996,6.78354876 8.30474088,6.54929055 10.1207951,7.83024848 C12.3507249,9.40328295 12.7646004,13.4110993 12.7359557,14.819744 L12.7353663,14.8428492 L12.7469185,17.0061171 C10.955619,16.4064868 8.37146077,15.2354169 6.5062507,13.1036561 Z M16.3382406,14.819744 C16.336944,14.7691115 16.2894384,9.70951006 18.9534012,7.83024848 C20.0103103,7.08480106 21.5018418,6.84822127 22.931015,6.84822127 C23.8342091,6.84822127 24.7128842,6.94285318 25.4404375,7.06324355 C25.230258,8.4476775 24.5773225,10.8070634 22.5678277,13.1036561 C20.7024998,15.235638 18.1175164,16.406929 16.3271599,17.0062276 L16.33883,14.8428492 L16.3382406,14.819744 Z M20.6151509,40.7868076 L15.9797685,40.7868076 L15.9797685,44.1034572 L19.5545875,44.1034572 C17.9753535,48.6297591 15.9904956,52.8793511 14.6353509,55.5899585 C12.147854,50.6160343 7.54040908,40.4628922 7.21293934,32.9171026 L12.0223121,32.9171026 L12.0223121,29.600453 L7.27954136,29.600453 C7.51812982,26.3469282 8.25487778,24.0103159 9.47917607,22.6380426 C10.5818225,21.4024107 12.1721372,20.8513124 14.6357045,20.8513124 C17.0993897,20.8513124 18.6898222,21.4024107 19.7923508,22.6380426 C21.3088728,24.3377688 22.0778019,27.5163399 22.0778019,32.0854252 C22.0778019,34.7298123 21.489936,37.7521743 20.6151509,40.7868076 Z M20.5075268,18.8749868 C22.1401603,18.0311487 23.8660366,16.8483604 25.3016931,15.2076685 C29.2452397,10.7006025 29.0800903,5.90134937 29.0711314,5.69926159 L29.0190286,4.52598063 L27.8217248,4.18249773 C27.7530009,4.1628196 26.1150629,3.69828303 24.0152722,3.56573202 C21.0322092,3.37757371 18.6132005,3.92049115 16.827677,5.17989158 C15.9139917,5.82440567 15.149542,6.67432407 14.5370392,7.71947608 C13.9246543,6.67432407 13.1602046,5.82440567 12.2465193,5.17989158 C10.4611137,3.92049115 8.04293012,3.3773526 5.05892407,3.56573202 C2.95901556,3.69828303 1.32131326,4.1628196 1.25258941,4.18249773 L0.0551676872,4.52598063 L0.00318275118,5.69926159 C-0.005776104,5.90134937 -0.171161286,10.7006025 3.77250319,15.2076685 C5.23916209,16.8837368 7.00841811,18.0815601 8.67193606,18.9287148 C8.0024974,19.3314531 7.35804922,19.8478383 6.7672363,20.50993 C4.67475421,22.8551653 3.65745263,26.6415474 3.65745263,32.0857568 C3.65745263,43.2082127 12.6864462,59.4457668 13.0708518,60.1315165 L16.2012645,60.1315165 C16.2971006,59.9606042 18.5746538,55.8812612 20.8856848,50.3978061 C24.0234059,42.952397 25.6145458,36.791373 25.6145458,32.0856463 C25.6145458,26.6415474 24.5972442,22.8551653 22.5047621,20.50993 C21.886719,19.8174367 21.2098539,19.2852427 20.5075268,18.8749868 L20.5075268,18.8749868 Z" id="Fill-1" fill="#FF8406" mask="url(#mask-2)"></path>
                </g>
                <rect id="Rectangle-26-Copy" x="0" y="3" width="59" height="59"></rect>
            </g>
        </g>
    </g>
</svg>