<?xml version="1.0" encoding="UTF-8" standalone="no"?>
<svg width="21px" height="56px" viewBox="0 0 21 56" version="1.1" xmlns="http://www.w3.org/2000/svg" xmlns:xlink="http://www.w3.org/1999/xlink">
    <!-- Generator: Sketch 41.1 (35376) - http://www.bohemiancoding.com/sketch -->
    <title>Group 10</title>
    <desc>Created with Sketch.</desc>
    <defs></defs>
    <g id="Page-1" stroke="none" stroke-width="1" fill="none" fill-rule="evenodd">
        <g id="Desktop-HD-Copy" transform="translate(-810.000000, -197.000000)">
            <g id="Group-10" transform="translate(790.000000, 195.000000)">
                <path d="M40.9894215,29.1182483 C40.9508038,28.4917196 40.4537253,27.9924857 39.8299015,27.9537006 C39.8019285,27.9527061 39.6491907,27.9430098 39.395948,27.9430098 C39.3320803,27.9430098 39.2622715,27.9440043 39.1899871,27.9459933 C41.1161666,25.2810089 41.0136813,21.7197406 40.9914019,21.2575514 L40.9914019,13.2111335 C40.9914019,12.5246868 40.437387,11.9680211 39.7536564,11.9680211 C39.0699258,11.9680211 38.5159109,12.5246868 38.5159109,13.2111335 L38.5159109,20.0686387 C37.5150699,20.1377557 36.1322607,20.3473445 34.7764343,20.9253917 C35.0569074,20.0939982 35.2348952,19.1947307 35.2348952,18.2507111 C35.2348952,14.7222609 32.7517302,11.8273007 31.7382642,10.7920367 L31.7382642,3.2431124 C31.7382642,2.55641711 31.1832592,2 30.5005188,2 C29.8167882,2 29.2627733,2.55641711 29.2627733,3.2431124 L29.2627733,10.7920367 C28.2483171,11.8273007 25.7651521,14.7222609 25.7651521,18.2507111 C25.7651521,19.1947307 25.9431399,20.0939982 26.223613,20.9243972 C24.8677867,20.3473445 23.4849774,20.1377557 22.4841364,20.0676442 L22.4841364,13.2111335 C22.4841364,12.5246868 21.9301215,11.9680211 21.2463909,11.9680211 C20.5626603,11.9680211 20.0086455,12.5246868 20.0086455,13.2111335 L20.0086455,21.2575514 C19.9853758,21.7197406 19.8838807,25.2820034 21.8100602,27.9459933 C21.7377759,27.9440043 21.667967,27.9430098 21.6040994,27.9430098 C21.3508567,27.9430098 21.1971287,27.9527061 21.1701458,27.9537006 C20.5463221,27.9924857 20.0492435,28.4917196 20.0106258,29.1182483 C19.9999812,29.2940244 19.7950106,33.0661246 21.8100602,35.8534312 C21.7377759,35.8514423 21.667967,35.8514423 21.6040994,35.8514423 C21.3508567,35.8514423 21.1971287,35.8601441 21.1691556,35.8611385 C20.5463221,35.8999237 20.0492435,36.3991576 20.0106258,37.0256862 C19.998991,37.2198604 19.7484714,41.8163928 22.5306756,44.6104122 C24.6251885,46.7130125 27.7019762,47.096637 29.2627733,47.145367 L29.2627733,56.2725468 C29.2627733,56.9589935 29.8167882,57.5156592 30.5005188,57.5156592 C31.1832592,57.5156592 31.7382642,56.9589935 31.7382642,56.2725468 L31.7382642,47.145367 C33.2980711,47.096637 36.3748588,46.7130125 38.4693717,44.6104122 C41.251576,41.8163928 41.0010563,37.2198604 40.9894215,37.0256862 C40.9508038,36.3991576 40.4537253,35.9009181 39.8308917,35.8611385 C39.8029187,35.8601441 39.6491907,35.8514423 39.395948,35.8514423 C39.3320803,35.8514423 39.2622715,35.8514423 39.1899871,35.8534312 C41.2050368,33.0661246 41.0000661,29.2940244 40.9894215,29.1182483 Z M28.7327707,36.715654 C27.4999762,36.6040225 25.5505271,36.220398 24.2808477,34.9452133 C23.0121586,33.6710231 22.6292002,31.7228174 22.5190408,30.4729922 C23.7508451,30.5836292 25.7002943,30.9672537 26.9709638,32.2434329 C28.2386627,33.5176231 28.6216211,35.4658288 28.7327707,36.715654 Z M34.0290836,32.2434329 C35.2977727,30.9692426 37.2452414,30.5846237 38.4772933,30.4729922 C38.3641633,31.7258009 37.9792245,33.6797249 36.7191996,34.9452133 C35.4485301,36.220398 33.499081,36.605017 32.2672767,36.715654 C32.377436,35.4648343 32.7613847,33.5166286 34.0290836,32.2434329 Z M36.7191996,27.038024 C35.4495203,28.3122142 33.5020516,28.6968332 32.2699997,28.8074702 C32.3831296,27.5546615 32.7690587,25.6014833 34.0290836,24.3359949 C35.2977727,23.0618047 37.2452414,22.6774343 38.4772933,22.5665487 C38.3641633,23.8193574 37.9792245,25.7725356 36.7191996,27.038024 Z M30.4975482,13.1188945 C31.4095191,14.1912033 32.7594043,16.1354311 32.7594043,18.2507111 C32.7594043,20.3804113 31.4124896,22.3169318 30.4995286,23.3842681 C29.5868151,22.3169318 28.2396529,20.3804113 28.2396529,18.2507111 C28.2396529,16.1207623 29.5848347,14.1862308 30.4975482,13.1188945 Z M26.9709638,24.3359949 C28.2386627,25.6101851 28.6216211,27.5583909 28.7327707,28.8084647 C27.4999762,28.6968332 25.5505271,28.3132087 24.2808477,27.038024 C23.0121586,25.7648283 22.6292002,23.8156281 22.5190408,22.5665487 C23.7508451,22.6774343 25.7002943,23.0610588 26.9709638,24.3359949 Z M24.2808477,42.8526513 C23.0121586,41.5784611 22.6292002,39.6302553 22.5190408,38.3804301 C23.7508451,38.4910671 25.7002943,38.8746916 26.9709638,40.1508708 C28.2386627,41.4240665 28.6216211,43.3732668 28.7327707,44.6220975 C27.4999762,44.5114605 25.5505271,44.127836 24.2808477,42.8526513 Z M36.7191996,42.8516568 C35.4495203,44.1268415 33.5020516,44.5114605 32.2699997,44.6220975 C32.3831296,43.3692888 32.7690587,41.4163592 34.0290836,40.1508708 C35.2987629,38.8746916 37.248212,38.4910671 38.4810065,38.3804301 C38.369857,39.6302553 37.9868985,41.5784611 36.7191996,42.8516568 Z" id="wheat" fill="#FFE700"></path>
                <rect id="Rectangle-26-Copy-6" x="0" y="0" width="59" height="59"></rect>
            </g>
        </g>
    </g>
</svg>