<?xml version="1.0" encoding="UTF-8" standalone="no"?>
<svg width="27px" height="58px" viewBox="0 0 27 58" version="1.1" xmlns="http://www.w3.org/2000/svg" xmlns:xlink="http://www.w3.org/1999/xlink">
    <!-- Generator: Sketch 41.1 (35376) - http://www.bohemiancoding.com/sketch -->
    <title>Group 8</title>
    <desc>Created with Sketch.</desc>
    <defs>
        <polygon id="path-1" points="0.018214972 0.206623479 0.018214972 51.9070986 26.1281631 51.9070986 26.1281631 0.206623479 0.018214972 0.206623479"></polygon>
    </defs>
    <g id="Page-1" stroke="none" stroke-width="1" fill="none" fill-rule="evenodd">
        <g id="Desktop-HD-Copy" transform="translate(-669.000000, -195.000000)">
            <g id="Group-8" transform="translate(651.000000, 195.000000)">
                <g id="milk" transform="translate(18.000000, 0.000000)">
                    <g id="Group-3" transform="translate(0.217410, 5.575538)">
                        <mask id="mask-2" fill="white">
                            <use xlink:href="#path-1"></use>
                        </mask>
                        <g id="Clip-2"></g>
                        <path d="M0,18.9402427 L0,46.2221916 C0,49.356979 2.5922941,51.9070986 5.77869988,51.9070986 L20.3494632,51.9070986 C23.535869,51.9070986 26.1281631,49.356979 26.1281631,46.2221916 L26.1281631,18.9402427 C26.1281631,16.60189 25.4214221,13.0677707 24.5191739,10.8946918 L20.5534709,1.35498987 C20.1515272,0.387230949 19.0783617,-0.0544543522 18.1557734,0.365895033 C17.233185,0.787518204 16.8121156,1.91354504 17.212845,2.88130397 L21.178548,12.4210059 C21.8746635,14.0963529 22.4851687,17.1429306 22.4851687,18.9402427 L22.4851687,46.2209178 C22.4851687,47.2323039 21.5070247,48.0857405 20.3494632,48.0857405 L5.77869988,48.0857405 C4.62144199,48.0857405 3.64299441,47.2323039 3.64299441,46.2209178 L3.64299441,18.9402427 C3.64299441,17.1540763 4.27991126,14.1387063 5.00668865,12.4881981 L9.21890093,2.91856221 C9.63997037,1.96067512 9.24136607,0.825094892 8.32849238,0.383409591 C7.41531512,-0.0595494962 6.33243503,0.358570763 5.91045484,1.31741319 L1.69945689,10.8857753 C0.747117437,13.05153 0,16.5891522 0,18.9402427 Z" id="Fill-1" fill="#A1A1A1" mask="url(#mask-2)"></path>
                    </g>
                    <path d="M19.8731864,4.29092494 C20.8798672,4.29092494 21.6946836,3.43494074 21.6946836,2.38024592 C21.6946836,1.32523265 20.8798672,0.469566897 19.8731864,0.469566897 L7.02191645,0.469566897 C6.01523566,0.469566897 5.20041924,1.32523265 5.20041924,2.38024592 C5.20041924,3.43494074 6.01523566,4.29092494 7.02191645,4.29092494 L19.8731864,4.29092494 Z" id="Fill-4" fill="#A1A1A1"></path>
                </g>
                <rect id="Rectangle-26-Copy-4" x="0" y="0" width="59" height="59"></rect>
            </g>
        </g>
    </g>
</svg>