<?xml version="1.0" encoding="UTF-8" standalone="no"?>
<svg width="56px" height="56px" viewBox="0 0 56 56" version="1.1" xmlns="http://www.w3.org/2000/svg" xmlns:xlink="http://www.w3.org/1999/xlink">
    <!-- Generator: Sketch 41.1 (35376) - http://www.bohemiancoding.com/sketch -->
    <title>icoColacion</title>
    <desc>Created with Sketch.</desc>
    <defs>
        <polygon id="path-1" points="4.78810198e-05 55.9929854 55.8904449 55.9929854 55.8904449 0.028993737 27.9452464 0.028993737 4.78810198e-05 0.028993737 4.78810198e-05 55.9929854"></polygon>
    </defs>
    <g id="Page-1" stroke="none" stroke-width="1" fill="none" fill-rule="evenodd">
        <g id="Desktop-HD-Copy-4" transform="translate(-320.000000, -676.000000)">
            <g id="icoColacion" transform="translate(319.000000, 675.000000)">
                <rect id="Rectangle-Copy" x="0" y="0" width="58" height="58"></rect>
                <g id="colacion" transform="translate(1.000000, 1.000000)">
                    <g id="Group-4">
                        <mask id="mask-2" fill="white">
                            <use xlink:href="#path-1"></use>
                        </mask>
                        <g id="Clip-2"></g>
                        <polyline id="Fill-1" fill="#EF4077" mask="url(#mask-2)" points="34.125 12.0756042 41.5227372 12.0646681 41.5625 14.0993001 34.1647628 14.1102362 34.125 12.0756042"></polyline>
                        <path d="M5.16666944,35.5893445 L5.43688981,35.3499123 C5.76765073,35.0666388 6.15185031,34.8531608 6.56655301,34.7223382 C8.29347193,36.4319165 10.6213721,37.3895282 13.0463701,37.3878914 C13.1057464,37.3818121 13.1643077,37.3698873 13.2214719,37.3523507 C13.7509688,37.3183299 14.2563659,37.1177119 14.6660624,36.779023 L16.4496798,35.282572 C17.6720166,34.2508392 19.4634345,34.2766764 20.6558503,35.3433653 L20.9259543,35.5827975 C23.0162328,37.4316159 24.2121414,40.0949478 24.208183,42.8920251 C20.5845988,45.4445261 16.3423368,46.9679833 11.9286985,47.3018789 L7.80355925,47.6133278 C7.31655717,47.6501545 6.9406237,48.0582881 6.94190437,48.5486096 L6.94190437,51.9558413 C6.94295218,52.2889186 7.12038254,52.5963925 7.40760083,52.7629896 L7.53718087,52.8396827 C8.29940956,53.2840585 9.08678586,53.6835407 9.89546778,54.0359081 C8.7992183,54.1580793 7.69528482,53.8877829 6.77809563,53.2727182 C4.78503119,51.9398246 3.35150104,49.9158747 2.75156757,47.5880752 L2.18167152,45.38081 C1.24934719,41.8127098 2.40497297,38.0218956 5.16666944,35.5893445 Z M12.0479168,35.4527933 C8.75951767,34.9977787 6.17397089,32.4015532 5.72096466,29.0994238 C9.00866528,29.5556075 11.5935135,32.1512484 12.0479168,35.4527933 Z M16.9060624,27.8882338 L17.0196923,27.7404593 L15.8303035,26.8192067 L15.577896,23.03038 L18.8210062,21.2149979 C21.6584948,19.6397495 25.0699543,19.500977 28.0250312,20.8408852 C31.517289,22.427357 35.5504532,22.2643841 38.904632,20.4013027 L40.5502869,19.4837912 L40.1330229,25.7726263 C39.9253222,25.6119916 39.6980624,25.4784802 39.4568316,25.3751315 L38.0653306,24.7924509 C37.3223119,24.4792484 36.477422,24.5240251 35.7713098,24.9140376 C35.047501,25.3118831 34.545131,26.0208267 34.4077505,26.8379123 C33.4203576,32.5835825 30.4392017,37.7928685 25.9927318,41.5424134 C25.6651143,38.6993904 24.3008565,36.0789645 22.1628441,34.1864217 L21.8927401,33.9469896 C20.0124906,32.2661712 17.1885073,32.2263048 15.2621538,33.8534614 L14.0895301,34.8355073 C14.3826861,32.3059207 15.356341,29.9042338 16.9060624,27.8882338 Z M27.017264,13.9890104 L27.017264,18.5110981 C23.9622952,17.6606931 20.6971809,18.0443925 17.9203493,19.5801253 L15.4409813,20.9634071 L14.982736,14.050739 L27.017264,13.9890104 Z M41.3773638,32.1924008 L41.3773638,31.6826722 L50.653106,31.6826722 C50.2945198,39.2652359 45.7046154,45.9950564 38.7937963,49.0714322 C37.0692058,49.8369603 35.2443742,50.3506639 33.3749522,50.5968768 C34.7722744,49.3748142 36.0055551,47.9753987 37.0435925,46.4339374 C39.8765405,42.2299624 41.3864449,37.2684092 41.3773638,32.1924008 Z M54.0089148,31.6826722 C53.5213306,44.2278413 43.2452723,54.1419457 30.7428358,54.1294363 L27.7744865,54.1294363 C28.80321,53.6847098 29.7957256,53.159666 30.7428358,52.5590981 L30.7428358,52.6460793 C33.775684,52.6518079 36.7759335,52.0164008 39.5482245,50.7811273 C47.1318586,47.404643 52.1560249,40.0052777 52.5158919,31.6826722 L54.0089148,31.6826722 Z M17.9818212,54.0424551 C14.762578,53.8886013 11.6225031,52.9885094 8.80748441,51.4124426 L8.80748441,49.4137453 L12.0674761,49.1668309 C24.1936299,48.2556326 34.1535967,39.1888935 36.2425946,27.1596493 C36.2839252,26.9037328 36.4401663,26.6812526 36.6664948,26.5563925 C36.8757089,26.4394823 37.1268358,26.4260376 37.3472266,26.5199165 L38.7387277,27.1035324 C39.2072183,27.2984217 39.5121331,27.7578789 39.5108524,28.267023 L39.5108524,32.1952067 C39.5191185,36.8980376 38.120632,41.4949478 35.4965489,45.3901628 C31.5796923,51.165762 24.9294304,54.4508225 17.9827526,54.0415198 L17.9818212,54.0424551 Z M0.948507277,48.0566514 C1.66276923,50.829762 3.37071102,53.2408017 5.74506445,54.8280919 C7.79273181,56.2082171 10.4402162,56.3114489 12.5881247,55.0946472 L12.5359667,55.001119 C14.2795343,55.5191482 16.078869,55.8244008 17.8952017,55.9102129 C18.0814802,55.9195658 18.2677588,55.9195658 18.4605572,55.9233069 L18.4605572,56 L30.7428358,56 C44.6190769,56.0123925 55.8779875,44.7265804 55.8904449,30.7922839 L55.8904449,30.7473904 C55.8904449,30.230881 55.4734137,29.8121086 54.959052,29.8121086 L41.7331559,29.8121086 L42.8509439,13.0387641 C42.8671268,12.779691 42.7765489,12.5252944 42.6002827,12.3354322 C42.418079,12.1551566 42.1751019,12.050405 41.9195509,12.0417537 L40.0567651,12.0520418 L40.0659626,13.9226054 L40.9284324,13.9226054 L40.7058295,17.2681086 L38.00479,18.772977 C35.1919834,20.3317411 31.8154511,20.4808017 28.8772557,19.1760835 L28.8772557,13.9796576 L34.4701538,13.9506639 L34.4609563,12.0801002 L28.8800499,12.1090939 L28.8800499,7.8788142 L38.6940208,1.61242589 L37.6938212,0.028993737 L27.448499,6.5759666 C27.1797921,6.74770772 27.0170312,7.04547808 27.017264,7.36534447 L27.017264,12.1184468 L13.98242,12.1857871 C13.4679418,12.1887098 13.0533555,12.6099374 13.0563825,13.1264468 C13.056499,13.1455031 13.0571975,13.1646764 13.0584782,13.1837328 L14.0951185,28.7935866 C13.5509522,29.7869729 13.113896,30.8357745 12.7911684,31.9221044 C11.1565738,28.9856701 8.06970478,27.1650271 4.71960083,27.1615198 C4.20523909,27.1615198 3.7882079,27.5802923 3.7882079,28.0968017 C3.78681081,29.911833 4.31817048,31.6871148 5.31580873,33.2006347 C4.91228274,33.4000835 4.53658212,33.6515574 4.19813721,33.9488601 L3.92803326,34.1882923 C0.641846154,37.0867307 -0.731841996,41.6005177 0.379426195,45.8484509 L0.948507277,48.0566514 L0.948507277,48.0566514 Z" id="Fill-3" fill="#EB0B52" mask="url(#mask-2)"></path>
                    </g>
                </g>
            </g>
        </g>
    </g>
</svg>