<?xml version="1.0" encoding="UTF-8" standalone="no"?>
<svg width="57px" height="46px" viewBox="0 0 57 46" version="1.1" xmlns="http://www.w3.org/2000/svg" xmlns:xlink="http://www.w3.org/1999/xlink">
    <!-- Generator: Sketch 41.1 (35376) - http://www.bohemiancoding.com/sketch -->
    <title>icoComida</title>
    <desc>Created with Sketch.</desc>
    <defs></defs>
    <g id="Page-1" stroke="none" stroke-width="1" fill="none" fill-rule="evenodd">
        <g id="Desktop-HD-Copy" transform="translate(-563.000000, -495.000000)">
            <g id="Group-13" transform="translate(369.000000, 477.000000)">
                <g id="icoComida" transform="translate(193.000000, 12.000000)">
                    <rect id="Rectangle-Copy-2" x="0" y="0" width="58" height="58"></rect>
                    <g id="comida" transform="translate(1.000000, 6.000000)" fill="#DCDCDC">
                        <g id="Capa_1">
                            <path d="M28.5,3.83333333 C18.0065375,3.83333333 9.5,12.4144896 9.5,23 C9.5,33.5855104 18.0065375,42.1666667 28.5,42.1666667 C38.9934625,42.1666667 47.5,33.5855104 47.5,23 C47.4880062,12.4195208 38.988475,3.84543229 28.5,3.83333333 Z M28.5,40.25 C19.0559313,40.25 11.4,32.5269115 11.4,23 C11.4,13.4730885 19.0559313,5.75 28.5,5.75 C37.9440688,5.75 45.6,13.4730885 45.6,23 C45.5889563,32.5223594 37.9395563,40.2388594 28.5,40.25 Z" id="Shape"></path>
                            <path d="M55.55885,0.182083333 C54.6874625,-0.184239583 53.6829562,0.01725 53.01665,0.691916667 C50.6933062,3.02366146 49.3910937,6.19586458 49.4,9.501875 L49.4,22.0416667 C49.4049875,23.2556354 50.1653437,24.3356771 51.3,24.7403333 L51.3,43.125 C51.3,44.7128385 52.5759687,46 54.15,46 C55.7240312,46 57,44.7128385 57,43.125 L57,2.35654167 C57.0019,1.40371875 56.432375,0.544453125 55.55885,0.182083333 Z M55.1,43.125 C55.1,43.6542396 54.6746375,44.0833333 54.15,44.0833333 C53.6253625,44.0833333 53.2,43.6542396 53.2,43.125 L53.2,24.9166667 L55.1,24.9166667 L55.1,43.125 Z M55.1,23 L52.25,23 C51.7253625,23 51.3,22.5709062 51.3,22.0416667 L51.3,9.501875 C51.292875,6.70461979 52.3949937,4.0206875 54.3609,2.04795833 C54.4374937,1.96530208 54.54425,1.91786458 54.65635,1.91666667 C54.71715,1.91738542 54.7771187,1.93008333 54.83305,1.95404167 C54.9984687,2.01705208 55.1057,2.17925 55.1,2.3575 L55.1,23 Z" id="Shape"></path>
                            <path d="M20.9,16.2916667 C18.8013313,16.2916667 17.1,18.0079219 17.1,20.125 C17.1,22.2420781 18.8013313,23.9583333 20.9,23.9583333 C22.9986688,23.9583333 24.7,22.2420781 24.7,20.125 C24.7,18.0079219 22.9986688,16.2916667 20.9,16.2916667 Z M20.9,22.0416667 C19.8506063,22.0416667 19,21.183599 19,20.125 C19,19.066401 19.8506063,18.2083333 20.9,18.2083333 C21.9493938,18.2083333 22.8,19.066401 22.8,20.125 C22.8,21.183599 21.9493938,22.0416667 20.9,22.0416667 Z" id="Shape"></path>
                            <path d="M28.5817,16.9356667 L26.9116,15.2509167 C26.71115,15.0497865 26.5989312,14.7760625 26.6,14.4909583 C26.5978625,12.8399896 25.2716625,11.5021563 23.63505,11.5 L19.83505,11.5 C19.0490437,11.5020365 18.2956937,11.8167292 17.7384,12.3759167 L14.1683,15.9773333 C13.6104125,16.537 13.2977437,17.2986354 13.3,18.092375 L13.3,22.157625 C13.2977437,22.9513646 13.6104125,23.713 14.1683,24.2726667 L15.8384,25.9574167 C16.03885,26.1585469 16.1510687,26.4322708 16.15,26.717375 C16.1521375,28.3683437 17.4783375,29.7061771 19.11495,29.7083333 L21.01495,29.7083333 C21.8009562,29.7062969 22.5543062,29.3914844 23.1116,28.8324167 L25.7317,26.1893333 C25.93215,25.9888021 26.2027812,25.8758385 26.48505,25.875 C28.1216625,25.8728438 29.4478625,24.5350104 29.45,22.8840417 L29.45,19.0507083 C29.4522562,18.2569687 29.1395875,17.4953333 28.5817,16.9356667 Z M27.55,22.8840417 C27.549525,23.4771302 27.0729812,23.9578542 26.48505,23.9583333 C25.6990437,23.9603698 24.9456937,24.2750625 24.3884,24.83425 L21.7683,27.4773333 C21.56785,27.6778646 21.2972187,27.7908281 21.01495,27.7916667 L19.11495,27.7916667 C18.5270187,27.7911875 18.050475,27.3104635 18.05,26.717375 C18.0522562,25.9236354 17.7395875,25.162 17.1817,24.6023333 L15.5116,22.9175833 C15.31115,22.7164531 15.1989312,22.4427292 15.2,22.157625 L15.2,18.092375 C15.19905,17.8072708 15.31115,17.5335469 15.5116,17.3324167 L19.0817,13.731 C19.28215,13.5304688 19.5527812,13.4175052 19.83505,13.4166667 L23.63505,13.4166667 C24.2229812,13.4171458 24.699525,13.8978698 24.7,14.4909583 C24.6977437,15.2846979 25.0104125,16.0463333 25.5683,16.606 L27.2384,18.29075 C27.43885,18.4918802 27.5510687,18.7656042 27.55,19.0507083 L27.55,22.8840417 Z" id="Shape"></path>
                            <path d="M37.72165,25.1974583 L33.92165,21.364125 C33.5505563,20.9898958 32.9490875,20.9900156 32.5781125,21.3643646 C32.4001063,21.5440521 32.3,21.7877083 32.3,22.0416667 L32.3,23.9583333 C32.3,24.4875729 31.8746375,24.9166667 31.35,24.9166667 C29.7759688,24.9166667 28.5,26.2038281 28.5,27.7916667 C28.5,28.3209063 28.0746375,28.75 27.55,28.75 C25.9759688,28.75 24.7,30.0371615 24.7,31.625 C24.7,32.1542396 24.2746375,32.5833333 23.75,32.5833333 L21.85,32.5833333 C21.3253625,32.5834531 20.9001188,33.0125469 20.9002375,33.5419063 C20.9002375,33.7959844 21.0003438,34.0395208 21.17835,34.2192083 L24.97835,38.0525417 C25.156475,38.2322292 25.3980125,38.3333333 25.65,38.3333333 L27.55,38.3333333 C29.1240313,38.3333333 30.4,37.0461719 30.4,35.4583333 C30.4,34.9290938 30.8253625,34.5 31.35,34.5 C32.9240313,34.5 34.2,33.2128385 34.2,31.625 C34.2,31.0957604 34.6253625,30.6666667 35.15,30.6666667 C36.7240313,30.6666667 38,29.3795052 38,27.7916667 L38,25.875 C38,25.6208021 37.899775,25.3771458 37.72165,25.1974583 Z M36.1,27.7916667 C36.1,28.3209062 35.6746375,28.75 35.15,28.75 C33.5759688,28.75 32.3,30.0371615 32.3,31.625 C32.3,32.1542396 31.8746375,32.5833333 31.35,32.5833333 C29.7759688,32.5833333 28.5,33.8704948 28.5,35.4583333 C28.5,35.9875729 28.0746375,36.4166667 27.55,36.4166667 L26.0433,36.4166667 L24.11955,34.4760417 C25.5387313,34.2888073 26.6001188,33.068849 26.6,31.625 C26.6,31.0957604 27.0253625,30.6666667 27.55,30.6666667 C29.1240313,30.6666667 30.4,29.3795052 30.4,27.7916667 C30.4,27.2624271 30.8253625,26.8333333 31.35,26.8333333 C32.7812938,26.8334531 33.9906438,25.7627552 34.17625,24.331125 L36.1,26.27175 L36.1,27.7916667 Z" id="Shape"></path>
                            <path d="M42.63505,17.6946667 L42.47165,17.5307917 L37.72165,12.739125 L33.75825,8.74191667 C32.3376437,7.30944792 30.0349625,7.30980729 28.61495,8.742875 C27.1949375,10.1758229 27.1954125,12.4988229 28.6159,13.9312917 L28.7793,14.0951667 L33.5293,18.8868333 L37.4927,22.8840417 C38.9133062,24.3165104 41.2159875,24.3160313 42.636,22.8830833 C44.0560125,21.4500156 44.0556562,19.1271354 42.63505,17.6946667 Z M30.0751,9.98966667 C30.3861062,9.72816146 30.7779812,9.58441146 31.1828,9.58333333 L31.1866,9.58333333 C31.646875,9.58477083 32.08815,9.76901042 32.41495,10.0960417 L34.7567,12.4583333 L29.8528,12.4583333 C29.2383875,11.7146667 29.3379,10.6094688 30.0751,9.98966667 Z M31.7433,14.375 L36.6567,14.375 L39.5067,17.25 L34.5933,17.25 L31.7433,14.375 Z M41.1749,21.6353333 C40.8638937,21.8968385 40.4720187,22.0405885 40.0672,22.0416667 L40.0634,22.0416667 C39.6028875,22.0401094 39.1616125,21.8556302 38.83505,21.528 L36.4933,19.1666667 L41.3972,19.1666667 C42.0116125,19.9103333 41.9121,21.0155313 41.1749,21.6353333 Z" id="Shape"></path>
                            <path d="M7.6,0 L7.6,7.66666667 L5.7,7.66666667 L5.7,0 L3.8,0 L3.8,7.66666667 L1.9,7.66666667 L1.9,0 L0,0 L0,12.4583333 C0.00463125,13.9584844 0.70834375,15.369151 1.9,16.26675 L1.9,43.125 C1.9,44.7128385 3.17596875,46 4.75,46 C6.32403125,46 7.6,44.7128385 7.6,43.125 L7.6,16.26675 C8.79165625,15.369151 9.49536875,13.9584844 9.5,12.4583333 L9.5,0 L7.6,0 Z M5.7,43.125 C5.7,43.6542396 5.2746375,44.0833333 4.75,44.0833333 C4.2253625,44.0833333 3.8,43.6542396 3.8,43.125 L3.8,17.25 L5.7,17.25 L5.7,43.125 Z M7.6,12.4583333 C7.6,14.0461719 6.32403125,15.3333333 4.75,15.3333333 C3.17596875,15.3333333 1.9,14.0461719 1.9,12.4583333 L1.9,9.58333333 L7.6,9.58333333 L7.6,12.4583333 Z" id="Shape"></path>
                        </g>
                    </g>
                </g>
            </g>
        </g>
    </g>
</svg>