<?xml version="1.0" encoding="UTF-8" standalone="no"?>
<svg width="58px" height="50px" viewBox="0 0 58 50" version="1.1" xmlns="http://www.w3.org/2000/svg" xmlns:xlink="http://www.w3.org/1999/xlink">
    <!-- Generator: Sketch 41.1 (35376) - http://www.bohemiancoding.com/sketch -->
    <title>icoDesayuno</title>
    <desc>Created with Sketch.</desc>
    <defs></defs>
    <g id="Page-1" stroke="none" stroke-width="1" fill="none" fill-rule="evenodd">
        <g id="icoDesayuno" transform="translate(0.000000, -4.000000)">
            <g id="Page-1">
                <g id="Desktop-HD-Copy">
                    <g id="Group-13">
                        <g id="icoDesayuno">
                            <rect id="Rectangle" x="0" y="0" width="58" height="58"></rect>
                            <g id="desayuno" transform="translate(0.739130, 4.000000)" fill="#66DF26">
                                <path d="M43.5675526,19.0462054 L10.5965014,19.0462054 C8.64881963,19.0462054 7.06389266,20.6485491 7.06389266,22.6176339 L7.06389266,24.9985491 C7.06389266,33.49375 11.7057405,41.1985491 19.1759935,45.105692 C19.7530231,45.405692 20.4641814,45.1794643 20.7633492,44.59375 C21.0600883,44.0103795 20.8363196,43.2914062 20.2569718,42.9889509 C13.5732762,39.49375 9.41892833,32.6008929 9.41892833,24.9984375 L9.41892833,22.6175223 C9.41892833,21.9603795 9.94650136,21.4270089 10.5965014,21.4270089 L43.5675526,21.4270089 C44.2175526,21.4270089 44.7451257,21.9603795 44.7451257,22.6175223 L44.7451257,24.9984375 C44.7451257,32.6007812 40.5907779,39.4936384 33.9047639,42.9864955 C33.3254161,43.2888393 33.1016474,44.0079241 33.3983865,44.5912946 C33.6080248,45.0007812 34.0201257,45.2364955 34.446357,45.2364955 C34.6300526,45.2364955 34.8137483,45.1936384 34.9856318,45.103125 C42.4583135,41.1983259 47.1001613,33.4959821 47.1001613,24.9983259 L47.1001613,22.6174107 C47.1001613,20.6485491 45.515124,19.0462054 43.5675526,19.0462054 Z" id="Shape"></path>
                                <path d="M54.0781675,43.5890625 C53.8944718,43.1438616 53.4658118,42.8533482 52.990124,42.8533482 L1.17856658,42.8533482 C0.702878736,42.8533482 0.27421875,43.1438616 0.0905230978,43.5890625 C-0.0931725543,44.0342634 0.00805876359,44.5462054 0.344870924,44.8867187 L2.98494395,47.5581473 C4.54403872,49.1319196 6.61171875,49.9986607 8.8137483,49.9986607 L45.3503057,49.9986607 C47.5523353,49.9986607 49.622444,49.1320312 51.183857,47.5581473 L53.82393,44.8867187 C54.1606318,44.5462054 54.2618631,44.0342634 54.0781675,43.5890625 Z M49.5164657,45.8747768 C48.4049083,46.9985491 46.9235309,47.6176339 45.3527344,47.6176339 L8.8137483,47.6176339 C7.24295177,47.6176339 5.76157439,46.9985491 4.65001698,45.8747768 L4.01889436,45.2367187 L50.1475883,45.2367187 L49.5164657,45.8747768 Z" id="Shape"></path>
                                <path d="M54.2430961,24.6676339 C51.0708135,22.605692 46.0027344,24.8438616 45.4350883,25.1033482 C44.8439283,25.3771205 44.580197,26.0819196 44.8509935,26.6819196 C45.1217901,27.2819196 45.8166101,27.5462054 46.4124066,27.272433 C47.5475883,26.7510045 51.1884935,25.5152902 52.9689283,26.6747768 C53.7720448,27.1962054 54.1652683,28.2081473 54.1652683,29.7604911 C54.1652683,34.5271205 44.6554857,37.4081473 40.983891,38.1176339 L40.1501953,38.2842634 C39.5120075,38.4104911 39.0974779,39.0366071 39.2223336,39.6819196 C39.3330588,40.2485491 39.8251953,40.6414063 40.3762823,40.6414063 C40.4516814,40.6414063 40.5269701,40.6342634 40.6046875,40.6176339 L41.4313179,40.4533482 C42.0483101,40.3342634 56.520304,37.4652902 56.520304,29.7604911 C56.5204144,27.3652902 55.7527344,25.6533482 54.2430961,24.6676339 Z" id="Shape"></path>
                                <path d="M36.2503057,9.07477679 C38.1649796,6.65569196 38.1649796,2.86763393 36.2503057,0.448549107 C35.8428414,-0.0657366071 35.1057405,-0.151450893 34.5947266,0.262834821 C34.0860309,0.674776786 34.0035666,1.42232143 34.4110309,1.93660714 C35.62393,3.46752232 35.62393,6.05569196 34.4087126,7.59140625 C32.4917204,10.0104911 32.4917204,13.7985491 34.4087126,16.2176339 C34.6418648,16.5128348 34.9833135,16.6652902 35.3295092,16.6652902 C35.5861753,16.6652902 35.8475883,16.5795759 36.0642918,16.4033482 C36.5729874,15.9914062 36.6554518,15.2414062 36.2479874,14.7295759 C35.03277,13.1985491 35.03277,10.6104911 36.2503057,9.07477679 Z" id="Shape"></path>
                                <path d="M29.1757048,9.07477679 C31.092697,6.65569196 31.092697,2.86763393 29.1757048,0.448549107 C28.7706692,-0.0657366071 28.0288213,-0.149107143 27.5201257,0.262834821 C27.01143,0.674776786 26.9289657,1.42477679 27.33643,1.93660714 C28.5516474,3.46752232 28.5516474,6.05569196 27.3341118,7.59140625 C25.4194378,10.0104911 25.4194378,13.7985491 27.3341118,16.2176339 C27.5672639,16.5128348 27.9087126,16.6652902 28.2549083,16.6652902 C28.5115744,16.6652902 28.7706692,16.5795759 28.9896909,16.4033482 C29.4983865,15.9914063 29.5808509,15.2438616 29.1733865,14.7295759 C27.9604874,13.1985491 27.9604874,10.6104911 29.1757048,9.07477679 Z" id="Shape"></path>
                                <path d="M22.1198709,9.07712054 C24.0345448,6.65803571 24.0345448,2.86997768 22.1198709,0.450892857 C21.7148353,-0.0633928571 20.9753057,-0.149107143 20.4642918,0.265178571 C19.9579144,0.674665179 19.8755605,1.42466518 20.2805961,1.93660714 C21.4934952,3.46752232 21.4934952,6.05569196 20.2782779,7.59140625 C18.3612857,10.0104911 18.3612857,13.7985491 20.2782779,16.2176339 C20.51143,16.5128348 20.8528787,16.6652902 21.1990744,16.6652902 C21.4557405,16.6652902 21.7171535,16.5795759 21.933857,16.4058036 C22.4425526,15.9938616 22.525017,15.2438616 22.1175526,14.7320313 C20.9023353,13.1985491 20.9023353,10.6128348 22.1198709,9.07712054 Z" id="Shape"></path>
                            </g>
                        </g>
                    </g>
                </g>
            </g>
        </g>
    </g>
</svg>