<?xml version="1.0" encoding="UTF-8" standalone="no"?>
<svg width="57px" height="46px" viewBox="0 0 57 46" version="1.1" xmlns="http://www.w3.org/2000/svg" xmlns:xlink="http://www.w3.org/1999/xlink">
    <!-- Generator: Sketch 41.1 (35376) - http://www.bohemiancoding.com/sketch -->
    <title>Group 6</title>
    <desc>Created with Sketch.</desc>
    <defs>
        <polygon id="path-1" points="0.00653952183 45.817351 55.8039196 45.817351 55.8039196 0.00985073046 0.00653952183 0.00985073046"></polygon>
        <linearGradient x1="50%" y1="0%" x2="50%" y2="100%" id="linearGradient-3">
            <stop stop-color="#C01919" offset="0%"></stop>
            <stop stop-color="#C01919" offset="100%"></stop>
        </linearGradient>
    </defs>
    <g id="Page-1" stroke="none" stroke-width="1" fill="none" fill-rule="evenodd">
        <g id="Desktop-HD-Copy" transform="translate(-512.000000, -202.000000)">
            <g id="Group-6" transform="translate(511.000000, 195.000000)">
                <g id="Group" transform="translate(1.883721, 7.000000)">
                    <g id="meat">
                        <g id="Group-3">
                            <mask id="mask-2" fill="white">
                                <use xlink:href="#path-1"></use>
                            </mask>
                            <g id="Clip-2"></g>
                            <path d="M53.624079,25.637786 C53.624079,31.9444298 48.741999,37.0750568 42.7411157,37.0750568 C36.8370175,37.0750568 32.7445847,38.8690352 28.7868661,40.6039092 C25.3583038,42.1068328 22.1199326,43.5264834 17.983794,43.5264834 C9.61102624,43.5264834 2.73918771,36.64781 2.21341015,27.9854671 C5.27390637,33.835541 11.1953344,37.8093944 17.983794,37.8093944 C22.5563367,37.8093944 25.9903486,36.3040653 29.6259957,34.7103088 C33.3857848,33.0621441 37.2734215,31.3579677 42.7411157,31.3579677 C43.147329,31.3579677 43.557684,31.3378081 43.9609545,31.2981761 C44.5603017,31.2391862 45.0006295,30.6807873 44.9444986,30.0509132 C44.8883677,29.4211538 44.3563776,28.9585131 43.7576844,29.0173884 C43.421662,29.0503768 43.079754,29.0672147 42.7411157,29.0672147 C36.8370175,29.0672147 32.7445847,30.8611931 28.7868661,32.5960671 C25.3583038,34.0989907 22.1199326,35.5186414 17.983794,35.5186414 C9.26944521,35.5186414 2.17984061,28.0679383 2.17984061,18.9098516 C2.17984061,9.75165044 9.26944521,2.30083282 17.983794,2.30083282 C21.7225476,2.30083282 31.3332469,2.56485531 39.8068323,5.01024187 C48.9752419,7.65630843 53.624079,11.9022023 53.624079,17.6300585 C53.624079,20.75652 52.3715426,23.7889413 50.1877782,25.9496876 C49.7495213,26.3833488 49.7287038,27.1082939 50.1413476,27.5688728 C50.5539915,28.0296808 51.243802,28.0513295 51.682059,27.6177828 C52.4212429,26.8863088 53.0714894,26.0713327 53.624079,25.1938159 L53.624079,25.637786 Z M51.0591695,7.98722425 C48.5145326,5.85591563 44.9229182,4.11096182 40.3840541,2.80104375 C31.6547734,0.281776709 21.8109402,0.00985073046 17.983794,0.00985073046 C8.0674811,0.00985073046 0,8.48835153 0,18.9097371 L0,26.9174646 C0,37.3389647 8.0674811,45.817351 17.983794,45.817351 C22.5563367,45.817351 25.9903486,44.3120219 29.6259957,42.7182654 C33.3857848,41.0701007 37.2734215,39.3659243 42.7411157,39.3659243 C49.9439631,39.3659243 55.8039196,33.2073851 55.8039196,25.637786 L55.8039196,17.6300585 C55.8039196,13.8685685 54.2075133,10.6242419 51.0591695,7.98722425 L51.0591695,7.98722425 Z" id="Fill-1" fill="#C01919" mask="url(#mask-2)"></path>
                        </g>
                        <path d="M51.4442384,17.6300585 C51.4442384,16.5050134 51.2215676,15.4956572 50.7636921,14.5442599 C49.6826002,12.2987515 47.2771461,10.3581576 43.6139239,8.77654267 C40.6498857,7.49674951 37.4083537,6.68830235 35.2109654,6.23528329 C33.8940146,5.96393003 32.5139576,5.72155625 31.1090503,5.51514908 C30.5131909,5.42672159 29.9621271,5.86427729 29.8786393,6.49094411 C29.7952604,7.11749639 30.210956,7.69628407 30.8071424,7.78390976 C32.1728125,7.98458975 33.5133055,8.2199764 34.791455,8.48342616 C42.2781176,10.02644 47.3908248,12.6124858 48.8186203,15.578243 C49.1185664,16.2014735 49.2643978,16.8725831 49.2643978,17.6299439 C49.2643978,21.4099899 46.3380707,24.4853651 42.7411157,24.4853651 C39.1042697,24.4853651 35.5726009,25.1099701 31.9442562,26.3950323 C30.3815285,26.9486204 28.8641414,27.6103375 27.3967817,28.2504059 C26.4262077,28.6736437 25.4226091,29.1114285 24.4264219,29.5080922 C21.9125207,30.5094304 19.9856506,30.9366772 17.983794,30.9366772 C11.6733734,30.9366772 6.53941283,25.5413405 6.53941283,18.9096226 C6.53941283,12.2777901 11.6733734,6.88233883 17.983794,6.88233883 C19.214859,6.88233883 20.4646706,6.90685112 21.6982424,6.95518842 C21.9076161,6.963321 22.1172078,6.97214084 22.3269084,6.98187703 C22.9277815,7.01051287 23.4373192,6.52003813 23.4638043,5.88798777 C23.4903984,5.25605196 23.0243484,4.72101984 22.4230394,4.6931858 C22.2083251,4.68322053 21.9936108,4.6741716 21.7793325,4.66580994 C20.5188396,4.61644174 19.24178,4.59147128 17.983685,4.59147128 C10.4713003,4.59147128 4.35946323,11.0144912 4.35946323,18.9096226 C4.35946323,26.8045248 10.4711913,33.2275447 17.983685,33.2275447 C20.2654332,33.2275447 22.4232574,32.7558551 25.1988484,31.6502824 C26.2267523,31.2409044 27.2462637,30.796247 28.2323146,30.3661366 C29.6658868,29.7409589 31.1482874,29.0943615 32.6403883,28.5658584 C36.0407217,27.3615493 39.3447061,26.7761181 42.7411157,26.7761181 C47.5400348,26.7763472 51.4442384,22.6732888 51.4442384,17.6300585" id="Fill-6" fill="url(#linearGradient-3)"></path>
                        <path d="M19.0276107,17.3895174 C17.1824846,17.3895174 15.6814464,16.0547434 15.6814464,14.4140241 C15.6814464,12.7734193 17.1824846,11.4385308 19.0276107,11.4385308 C20.8727368,11.4385308 22.373775,12.7733047 22.373775,14.4140241 C22.373775,16.0547434 20.8727368,17.3895174 19.0276107,17.3895174 Z M19.0276107,9.14777775 C15.9806295,9.14777775 13.5016058,11.5102349 13.5016058,14.4141386 C13.5016058,17.3180423 15.9806295,19.6804995 19.0276107,19.6804995 C22.0747009,19.6804995 24.5536156,17.3180423 24.5536156,14.4141386 C24.5536156,11.5102349 22.0747009,9.14777775 19.0276107,9.14777775 L19.0276107,9.14777775 Z" id="Fill-7" fill="url(#linearGradient-3)"></path>
                    </g>
                </g>
                <rect id="Rectangle-26-Copy-2" x="0" y="0" width="59" height="59"></rect>
            </g>
        </g>
    </g>
</svg>