<?xml version="1.0" encoding="UTF-8" standalone="no"?>
<svg width="49px" height="57px" viewBox="0 0 49 57" version="1.1" xmlns="http://www.w3.org/2000/svg" xmlns:xlink="http://www.w3.org/1999/xlink">
    <!-- Generator: Sketch 41.1 (35376) - http://www.bohemiancoding.com/sketch -->
    <title>Group 2</title>
    <desc>Created with Sketch.</desc>
    <defs>
        <linearGradient x1="0%" y1="87.7541704%" x2="89.0659235%" y2="4.84588494%" id="linearGradient-1">
            <stop stop-color="#F00015" offset="0%"></stop>
            <stop stop-color="#FF004B" offset="100%"></stop>
        </linearGradient>
    </defs>
    <g id="Page-1" stroke="none" stroke-width="1" fill="none" fill-rule="evenodd">
        <g id="Desktop-HD-Copy" transform="translate(-374.000000, -196.000000)">
            <g id="Group-2" transform="translate(369.000000, 195.000000)">
                <path d="M49.7481577,30.5101176 C48.1018893,41.8141738 44.9819459,49.5072106 40.7252403,52.7575061 C38.7348457,54.2773269 36.5349414,54.807908 33.9998216,54.379041 C32.4461618,54.1163628 31.2189126,53.4531642 30.2477426,52.3513164 C29.9410629,52.0037096 29.5098443,51.8059506 29.0580461,51.8059506 C28.6062478,51.8059506 28.1750292,52.0037096 27.8684556,52.3513164 C26.8972856,53.4531642 25.6699303,54.1163628 24.1162705,54.379041 C21.5811507,54.8073521 19.3813525,54.2773269 17.3909578,52.7575061 C13.1341462,49.5072106 10.0142028,41.8141738 8.36804047,30.5101176 C7.46306488,24.2958825 11.4004671,18.4501528 17.1449564,17.4790327 C17.6962585,17.3857669 18.2474545,17.3397454 18.7946194,17.3397454 C21.0309095,17.3397454 23.1998382,18.1096605 25.0336575,19.5780128 C27.403079,21.475232 30.712907,21.475232 33.0824346,19.5780128 C35.3649759,17.7503816 38.1668889,17.0047 40.9710296,17.4790327 L40.9711357,17.4790327 C46.715731,18.4502639 50.6530272,24.2959936 49.7481577,30.5101176 Z M23.9472837,5.24665403 C25.2879333,6.21877463 27.1049918,7.88155107 27.9504561,10.1895177 C28.7905102,12.4829219 28.4997426,15.0036545 28.124959,16.6724338 C26.7844156,15.7004243 24.967357,14.0376479 24.1218928,11.7296813 C23.2817326,9.43627706 23.5726062,6.91554443 23.9472837,5.24665403 Z M41.4871129,14.1283569 L41.4871129,14.1283569 C38.1453545,13.5635376 34.8105974,14.3112201 31.985877,16.2377864 C32.8284771,14.2977694 34.1469558,12.5431723 35.9302806,10.9963389 C38.0545493,9.15370066 40.0700851,8.31397521 40.0865276,8.30719427 C40.9207473,7.96925869 41.3355234,6.9865776 41.0130376,6.11239162 C40.690658,5.2383168 39.7532217,4.80344707 38.9185777,5.14149381 C38.6634533,5.24487542 34.6515823,6.91643374 31.48316,10.8188115 C31.3644555,10.2045247 31.1986512,9.58623597 30.9741841,8.97328308 C29.0888095,3.82676879 23.909625,1.26379422 23.6901438,1.15718888 C23.292765,0.964321043 22.8378904,0.948313569 22.4289487,1.11261251 C22.0202193,1.27713378 21.6924295,1.60806609 21.5202603,2.02992974 C21.4252119,2.26314976 19.2130022,7.79929044 21.0981647,12.9458047 C21.2681062,13.4095768 21.4649922,13.8520057 21.6823518,14.2738693 C20.0445699,13.8943588 18.3378354,13.8393331 16.6291914,14.1282458 C9.13649002,15.3951707 3.99432774,22.9734872 5.16652094,31.0221344 C6.00084669,36.7511429 7.2205641,41.671774 8.79225772,45.6469636 C10.5747339,50.1559579 12.8260875,53.4710615 15.4837306,55.5005647 C17.588056,57.1074262 19.9321242,57.9158036 22.4759426,57.9155813 C23.1796828,57.9155813 23.8990169,57.8537747 24.6322476,57.7297167 C26.3245552,57.4438055 27.8070348,56.7937241 29.0581521,55.7918118 C30.3093756,56.793613 31.7918552,57.4438055 33.4841627,57.7297167 C36.867823,58.3017616 39.9460766,57.5518559 42.6325737,55.5005647 C45.2902168,53.4711727 47.5415703,50.1560691 49.3240465,45.6469636 C50.8957402,41.6716628 52.1154576,36.7510318 52.9497833,31.0221344 C54.1218704,22.9734872 48.9798142,15.3951707 41.4871129,14.1283569 L41.4871129,14.1283569 Z" id="apple-(1)" fill="url(#linearGradient-1)"></path>
                <rect id="Rectangle-26" x="0" y="0" width="59" height="59"></rect>
            </g>
        </g>
    </g>
</svg>