<?xml version="1.0" encoding="UTF-8" standalone="no"?>
<svg width="42px" height="42px" viewBox="0 0 42 42" version="1.1" xmlns="http://www.w3.org/2000/svg" xmlns:xlink="http://www.w3.org/1999/xlink">
    <!-- Generator: Sketch 41.1 (35376) - http://www.bohemiancoding.com/sketch -->
    <title>Group 9</title>
    <desc>Created with Sketch.</desc>
    <defs>
        <polygon id="path-1" points="5.46874999e-05 41.9934375 41.9995625 41.9934375 41.9995625 0 5.46874999e-05 0"></polygon>
    </defs>
    <g id="Page-1" stroke="none" stroke-width="1" fill="none" fill-rule="evenodd">
        <g id="Desktop-HD-Copy" transform="translate(-729.000000, -204.000000)">
            <g id="Group-9" transform="translate(720.000000, 195.000000)">
                <g id="lollipop" transform="translate(9.000000, 9.000000)">
                    <mask id="mask-2" fill="white">
                        <use xlink:href="#path-1"></use>
                    </mask>
                    <g id="Clip-2"></g>
                    <path d="M28.8745625,0 C25.6941562,0 22.7760312,1.13815625 20.5017969,3.026625 C20.4441562,3.07234375 20.3924219,3.12101562 20.3407969,3.17275 C17.5354375,5.58239062 15.7495625,9.14648438 15.7495625,13.125 C15.7495625,16.113125 16.7646719,18.8633594 18.4536406,21.07175 L0.51275,39.01275 C-0.17084375,39.6963437 -0.17084375,40.8036563 0.51275,41.48725 C0.853671875,41.8294844 1.30178125,42 1.7495625,42 C2.19778125,42 2.64589062,41.8294844 2.98692187,41.48725 L20.92825,23.5463594 C23.1375156,25.2348906 25.886875,26.25 28.8745625,26.25 C32.9470312,26.25 36.5923906,24.3854844 39.0020312,21.4657188 C39.0071719,21.4583906 39.011875,21.4524844 39.0170156,21.4451563 C40.8789062,19.179125 41.9995625,16.2810156 41.9995625,13.125 C41.9995625,5.887875 36.1116875,0 28.8745625,0 Z M19.2495625,13.125 C19.2495625,11.0759687 19.8990312,9.17765625 20.9944219,7.61523437 C22.2834062,10.2577344 24.227875,12.9297656 26.6486719,15.350125 C29.0689219,17.77125 31.7422656,19.7157187 34.3847656,21.0042656 C32.8219062,22.1005312 30.9240312,22.75 28.8745625,22.75 C23.5677969,22.75 19.2495625,18.431875 19.2495625,13.125 Z M36.9606562,18.3267656 C34.3646406,17.2577344 31.5687969,15.3232188 29.1232812,12.8763906 C26.6767812,10.4298906 24.7422656,7.63448438 23.6736719,5.03890625 C25.1755,4.06951563 26.9584219,3.5 28.8745625,3.5 C34.181875,3.5 38.4995625,7.818125 38.4995625,13.125 C38.4995625,15.04125 37.9300469,16.8245 36.9606562,18.3267656 Z" id="Fill-1" fill="#7C18E0" mask="url(#mask-2)"></path>
                </g>
                <rect id="Rectangle-26-Copy-5" x="0" y="0" width="59" height="59"></rect>
            </g>
        </g>
    </g>
</svg>