<?xml version="1.0" encoding="UTF-8" standalone="no"?>
<svg width="38px" height="38px" viewBox="0 0 38 38" version="1.1" xmlns="http://www.w3.org/2000/svg" xmlns:xlink="http://www.w3.org/1999/xlink">
    <!-- Generator: Sketch 41.1 (35376) - http://www.bohemiancoding.com/sketch -->
    <title>Group 12</title>
    <desc>Created with Sketch.</desc>
    <defs>
        <polygon id="path-1" points="0.00441901592 37.7089358 37.7089358 37.7089358 37.7089358 0.049322994 0.00441901592 0.049322994"></polygon>
    </defs>
    <g id="Page-1" stroke="none" stroke-width="1" fill="none" fill-rule="evenodd">
        <g id="Desktop-HD-Copy" transform="translate(-939.000000, -205.000000)">
            <g id="Group-12" transform="translate(925.000000, 195.000000)">
                <g id="coffee-beans" transform="translate(14.000000, 10.000000)">
                    <g id="Group-5">
                        <mask id="mask-2" fill="white">
                            <use xlink:href="#path-1"></use>
                        </mask>
                        <g id="Clip-2"></g>
                        <path d="M17.2832868,18.8670376 C18.1510342,18.8670376 18.8544679,18.1649751 18.8544679,17.2989192 L18.8544679,12.3075204 C18.8544679,5.53740654 13.3556655,0.049322994 6.57232872,0.049322994 L1.57118111,0.049322994 C0.703433684,0.049322994 0,0.751385462 0,1.61744137 L0,6.60884016 C0,13.378954 5.49880246,18.8670376 12.2821392,18.8670376 L17.2832868,18.8670376 Z M12.2821392,15.7307273 C7.23429731,15.7307273 3.14243587,11.6468422 3.14243587,6.60884016 L3.14243587,3.18563326 L6.57232872,3.18563326 C11.6201706,3.18563326 15.712032,7.26951836 15.712032,12.3075204 L15.712032,15.7307273 L12.2821392,15.7307273 L12.2821392,15.7307273 Z" id="Fill-1" fill="#533203" mask="url(#mask-2)"></path>
                        <path d="M25.139266,20.1481858 C25.139266,15.1101838 29.2311274,11.0262987 34.2789693,11.0262987 L34.5665,11.0262987 L34.5665,11.3132688 C34.5665,16.3512708 30.4746385,20.4351559 25.4267966,20.4351559 L25.139266,20.4351559 L25.139266,20.1481858 Z M23.5680849,23.5714662 L25.4267966,23.5714662 C32.2101334,23.5714662 37.7089358,18.0833827 37.7089358,11.3132688 L37.7089358,9.45818028 C37.7089358,8.59212437 37.0055021,7.8900619 36.1377547,7.8900619 L34.2789693,7.8900619 C27.4956326,7.8900619 21.9969038,13.3780719 21.9969038,20.1481858 L21.9969038,22.0033478 C21.9969038,22.8694037 22.7003375,23.5714662 23.5680849,23.5714662 L23.5680849,23.5714662 Z" id="Fill-3" fill="#533203" mask="url(#mask-2)"></path>
                        <path d="M19.7668474,31.6436042 C15.8538088,35.5490885 9.509354,35.5490885 5.5946951,31.6434572 L3.79210486,29.8443808 L5.59491605,28.0450838 C9.509354,24.1395995 15.8538088,24.1395995 19.7668474,28.0450838 L21.5696586,29.8443808 L19.7668474,31.6436042 Z M24.2796938,28.1137391 L21.9888759,25.8273868 C16.8486766,20.6972073 8.51485447,20.6972073 3.3731085,25.8271662 L1.0820697,28.1137391 C0.126825757,29.0715313 0.126825757,30.6171567 1.07956559,31.5724497 L3.37288755,33.8613013 C8.51485447,38.9914807 16.8486766,38.9914807 21.9888759,33.8613013 L24.2796938,31.5749489 C25.2373682,30.6191413 25.2373682,29.0695467 24.2796938,28.1137391 L24.2796938,28.1137391 Z" id="Fill-4" fill="#533203" mask="url(#mask-2)"></path>
                    </g>
                    <path d="M3.14243587,31.4122051 L21.9969038,31.4122051 C22.8646512,31.4122051 23.5680849,30.7100691 23.5680849,29.8440132 C23.5680849,28.9779573 22.8646512,28.2758948 21.9969038,28.2758948 L3.14243587,28.2758948 C2.27468844,28.2758948 1.57118111,28.9779573 1.57118111,29.8440132 C1.57118111,30.7100691 2.27468844,31.4122051 3.14243587,31.4122051" id="Fill-6" fill="#533203"></path>
                    <path d="M2.03142162,4.29448179 L14.6010178,16.8395758 C15.2146718,17.4519601 16.2094659,17.4519601 16.8230463,16.8395758 C17.4366267,16.2271915 17.4366267,15.2343366 16.8230463,14.6218788 L4.25345012,2.07678473 C3.63979611,1.46440043 2.64500198,1.46440043 2.03142162,2.07678473 C1.41784126,2.68916902 1.41784126,3.68202399 2.03142162,4.29448179" id="Fill-7" fill="#533203"></path>
                </g>
                <rect id="Rectangle-26-Copy-8" x="0" y="0" width="59" height="59"></rect>
            </g>
        </g>
    </g>
</svg>