<?xml version="1.0" encoding="UTF-8" standalone="no"?>
<svg width="58px" height="43px" viewBox="0 0 58 43" version="1.1" xmlns="http://www.w3.org/2000/svg" xmlns:xlink="http://www.w3.org/1999/xlink">
    <!-- Generator: Sketch 41.1 (35376) - http://www.bohemiancoding.com/sketch -->
    <title>Group 7</title>
    <desc>Created with Sketch.</desc>
    <defs>
        <polygon id="path-1" points="0.00670694047 42.7418198 57.2325587 42.7418198 57.2325587 0.0617849404 0.00670694047 0.0617849404"></polygon>
    </defs>
    <g id="Page-1" stroke="none" stroke-width="1" fill="none" fill-rule="evenodd">
        <g id="Desktop-HD-Copy" transform="translate(-579.000000, -200.000000)">
            <g id="Group-7" transform="translate(579.000000, 195.000000)">
                <g id="butter" transform="translate(0.767441, 5.000000)">
                    <mask id="mask-2" fill="white">
                        <use xlink:href="#path-1"></use>
                    </mask>
                    <g id="Clip-2"></g>
                    <path d="M11.0674578,14.1417379 L32.9174403,14.1417379 L32.9174403,25.0927011 L36.2836537,25.0927011 L36.2836537,14.1417379 L50.0922381,14.1417379 L50.0922381,32.230142 L36.2836537,32.230142 L36.2836537,28.4451186 L32.9174403,28.4451186 L32.9174403,32.230142 L7.14032061,32.230142 L7.14032061,18.0527803 C7.14032061,15.8960963 8.90201031,14.1417379 11.0674578,14.1417379 Z M5.38992093,39.3960818 L4.37460193,35.5824481 L52.8579568,35.5824481 L51.8426378,39.3960818 L5.38992093,39.3960818 Z M53.4584515,32.2300307 L53.4584515,10.7893205 L46.7825866,10.7893205 C47.4480268,9.716155 47.833117,8.45307044 47.833117,7.10170577 C47.833117,3.21994165 44.6619638,0.0617849404 40.7642253,0.0617849404 L40.3154192,0.0617849404 C36.7887981,0.0617849404 33.9197925,2.91914362 33.9197925,6.43131133 L37.286006,6.43131133 C37.286006,4.76757091 38.6448321,3.41409108 40.3154192,3.41409108 L40.7642253,3.41409108 C42.8059298,3.41409108 44.4670154,5.06836895 44.4670154,7.10170577 C44.4670154,9.13504259 42.8059298,10.7893205 40.7642253,10.7893205 L11.0674578,10.7893205 C7.04597632,10.7893205 3.77410719,14.047669 3.77410719,18.0527803 L3.77410719,32.230142 L0,32.230142 L2.79970052,42.7484993 L54.4328582,42.7484993 L57.2325587,32.230142 L53.4584515,32.230142 L53.4584515,32.2300307 L53.4584515,32.2300307 Z" id="Fill-1" fill="#EBCE81" mask="url(#mask-2)"></path>
                </g>
                <rect id="Rectangle-26-Copy-3" x="0" y="0" width="59" height="59"></rect>
            </g>
        </g>
    </g>
</svg>