<?xml version="1.0" encoding="UTF-8" standalone="no"?>
<svg width="57px" height="48px" viewBox="0 0 57 48" version="1.1" xmlns="http://www.w3.org/2000/svg" xmlns:xlink="http://www.w3.org/1999/xlink">
    <!-- Generator: Sketch 41.1 (35376) - http://www.bohemiancoding.com/sketch -->
    <title>icoCena</title>
    <desc>Created with Sketch.</desc>
    <defs></defs>
    <g id="Page-1" stroke="none" stroke-width="1" fill="none" fill-rule="evenodd">
        <g id="icoCena" transform="translate(-1.000000, -6.000000)">
            <g id="Page-1">
                <g id="Desktop-HD-Copy">
                    <g id="Group-13">
                        <g id="IcoCena">
                            <rect id="Rectangle-Copy-4" x="0" y="0" width="58" height="58"></rect>
                            <g id="cena" transform="translate(1.000000, 6.000000)" fill="#6EDC3B">
                                <g id="Capa_1">
                                    <path d="M41.8756223,9.75760376 C43.230554,8.00362729 43.4671735,5.79421553 42.5604564,3.36823906 C41.9128808,1.63572141 40.8988369,0.393650823 40.8560174,0.341697881 C40.5237491,-0.0620668245 39.9317832,-0.115713883 39.5341735,0.221980234 C39.1365637,0.559391999 39.0840125,1.159392 39.4151686,1.5631567 C39.4607686,1.61934494 42.6764028,5.63242729 40.3986271,8.58132141 C37.1187637,12.828192 40.6157832,18.4292273 40.7662076,18.6655567 C40.9458271,18.9476273 41.2475101,19.1012273 41.5553101,19.1012273 C41.7299247,19.1012273 41.9064857,19.0518155 42.0638613,18.9484744 C42.4987296,18.6627332 42.6238515,18.0728979 42.3424662,17.6307332 C42.3135491,17.5855567 39.4243442,12.9309685 41.8756223,9.75760376 Z" id="Shape"></path>
                                    <path d="M48.8758342,9.75760376 C50.2307659,8.00362729 50.4673854,5.79421553 49.5606683,3.36823906 C48.9128147,1.63572141 47.8987708,0.393650823 47.8559513,0.341697881 C47.523961,-0.0620668245 46.9317171,-0.115713883 46.5341074,0.221980234 C46.1370537,0.559109646 46.0839464,1.15910965 46.4151025,1.56287435 C46.4479122,1.60325082 49.6810634,5.62649788 47.398561,8.58132141 C44.1186976,12.828192 47.6159952,18.4292273 47.7664195,18.6655567 C47.9460391,18.9476273 48.2474439,19.1012273 48.5552439,19.1012273 C48.7298586,19.1012273 48.9064195,19.0518155 49.0640732,18.9484744 C49.4992195,18.6627332 49.6240634,18.0728979 49.3426781,17.6307332 C49.3140391,17.5855567 46.4245561,12.9309685 48.8758342,9.75760376 Z" id="Shape"></path>
                                    <path d="M8.8756482,9.75760376 C10.2305799,8.00362729 10.4671994,5.79421553 9.56048235,3.36823906 C8.91262869,1.63572141 7.89886284,0.393650823 7.85604333,0.341697881 C7.52377503,-0.0620668245 6.93208723,-0.115713883 6.53419942,0.221980234 C6.13714577,0.559109646 6.08403845,1.15910965 6.41519455,1.56287435 C6.44828235,1.60325082 9.68115552,5.62649788 7.39893113,8.58132141 C4.11851162,12.828192 7.61580918,18.4289449 7.76651162,18.6655567 C7.94613113,18.9476273 8.24753601,19.1012273 8.55533601,19.1012273 C8.72995064,19.1012273 8.90651162,19.0518155 9.06388723,18.9484744 C9.49903357,18.6627332 9.62387747,18.0726155 9.34221406,17.6307332 C9.31357503,17.5855567 6.42409211,12.9309685 8.8756482,9.75760376 Z" id="Shape"></path>
                                    <path d="M15.8756571,9.75760376 C17.2305888,8.00362729 17.4672083,5.79421553 16.5607693,3.36823906 C15.9131937,1.63572141 14.8991498,0.393650823 14.8563302,0.341697881 C14.5240619,-0.0620668245 13.9323741,-0.115713883 13.5344863,0.221980234 C13.1374327,0.559109646 13.0843254,1.15910965 13.4154815,1.56287435 C13.4485693,1.60325082 16.6814424,5.62649788 14.39894,8.58132141 C11.1185205,12.828192 14.615818,18.4289449 14.7662424,18.6655567 C14.9458619,18.9476273 15.2472668,19.1012273 15.5550668,19.1012273 C15.7296815,19.1012273 15.9062424,19.0518155 16.0638961,18.9484744 C16.4990424,18.6627332 16.6238863,18.0726155 16.3422229,17.6307332 C16.3135839,17.5855567 13.424101,12.9309685 15.8756571,9.75760376 Z" id="Shape"></path>
                                    <path d="M53.6317171,39.9340235 L51.6411659,39.9340235 C51.1737659,28.0461176 42.0062195,18.3930353 30.4424488,17.3737412 L30.4424488,16.4032941 C31.6166488,15.6900706 32.3456927,14.4115765 32.3456927,12.9902118 C32.3456927,10.7901176 30.5825854,9 28.4160293,9 L28.3312244,9 C26.1643902,9 24.401561,10.7901176 24.401561,12.9902118 C24.401561,14.4115765 25.1308829,15.6903529 26.3045268,16.4032941 L26.3045268,17.3737412 C14.7410341,18.3930353 5.57320976,28.0458353 5.10580976,39.9340235 L3.11525854,39.9340235 C1.39747317,39.9340235 0,41.3531294 0,43.0972235 L0,44.2887529 C0,46.0342588 1.39747317,47.4539294 3.11498049,47.4539294 L53.6319951,47.4539294 C55.3497805,47.4539294 56.7469756,46.0342588 56.7469756,44.2887529 L56.7469756,43.0972235 C56.7466976,41.3531294 55.3492244,39.9340235 53.6317171,39.9340235 Z M26.2778341,12.9902118 C26.2778341,11.8410353 27.1987317,10.9058824 28.3306683,10.9058824 L28.4154732,10.9058824 C29.5474098,10.9058824 30.4683073,11.8410353 30.4683073,12.9902118 C30.4683073,13.8494118 29.9550293,14.6095059 29.1606439,14.9260235 C28.8014049,15.0691765 28.5653415,15.4212706 28.5653415,15.8131765 L28.5653415,17.2845176 L28.1808,17.2845176 L28.1808,15.8131765 C28.1808,15.4212706 27.9444585,15.0694588 27.5854976,14.9260235 C26.7911122,14.6092235 26.2778341,13.8494118 26.2778341,12.9902118 Z M53.6317171,45.5477647 L3.11470244,45.5477647 C2.43181463,45.5477647 1.87655122,44.9827765 1.87655122,44.2884706 L1.87655122,43.0969412 C1.87655122,42.4037647 2.43209268,41.8399059 3.11470244,41.8399059 L4.65759512,41.8399059 C4.66621463,41.8401882 4.67427805,41.8413176 4.68289756,41.8413176 L38.3829659,41.8413176 C38.9009707,41.8413176 39.3213805,41.4146824 39.3213805,40.8883765 C39.3213805,40.3623529 38.9009707,39.9354353 38.3829659,39.9354353 L6.98514146,39.9354353 C7.47617561,28.4402824 16.8158341,19.2364235 28.2441951,19.1901176 L28.5022244,19.1901176 C39.9308634,19.2364235 49.2699659,28.44 49.761278,39.9354353 L44.4527707,39.9354353 C43.9344878,39.9354353 43.5143561,40.3623529 43.5143561,40.8883765 C43.5143561,41.4146824 43.9344878,41.8413176 44.4527707,41.8413176 L51.6995561,41.8399059 L53.631439,41.8399059 C54.3143268,41.8399059 54.8695902,42.4037647 54.8695902,43.0969412 L54.8695902,44.2884706 L54.8698683,44.2884706 C54.8698683,44.9827765 54.3143268,45.5477647 53.6317171,45.5477647 Z" id="Shape"></path>
                                </g>
                            </g>
                        </g>
                    </g>
                </g>
            </g>
        </g>
    </g>
</svg>