<?xml version="1.0" encoding="UTF-8" standalone="no"?>
<svg width="343px" height="70px" viewBox="0 0 343 70" version="1.1" xmlns="http://www.w3.org/2000/svg" xmlns:xlink="http://www.w3.org/1999/xlink">
    <!-- Generator: Sketch 41.1 (35376) - http://www.bohemiancoding.com/sketch -->
    <title>Group</title>
    <desc>Created with Sketch.</desc>
    <defs></defs>
    <g id="Page-1" stroke="none" stroke-width="1" fill="none" fill-rule="evenodd">
        <g id="Desktop-HD" transform="translate(-257.000000, -94.000000)">
            <g id="Group" transform="translate(249.000000, 84.000000)">
                <path d="M99.264,71 L107.976,71 L107.976,34.928 L108.12,34.928 L132.816,71 L141.672,71 L141.672,19.88 L133.032,19.88 L133.032,56.6 L132.888,56.6 L107.904,19.88 L99.264,19.88 L99.264,71 Z M163.148,71.576 C167.18,71.576 171.068,69.92 173.876,66.536 L174.02,66.608 L174.02,71 L182.084,71 L182.084,35.864 L174.02,35.864 L174.02,52.712 C174.02,60.272 169.7,64.232 165.02,64.232 C160.196,64.232 158.036,62.072 158.036,55.088 L158.036,35.864 L149.972,35.864 L149.972,57.248 C149.972,67.688 155.372,71.576 163.148,71.576 Z M200.248,71.576 C204.856,71.576 207.088,70.64 209.176,69.488 L207.088,62.504 C205.216,63.512 203.272,64.016 201.904,64.016 C199.6,64.016 198.52,62.72 198.52,59.12 L198.52,42.704 L208.816,42.704 L208.816,35.864 L198.52,35.864 L198.52,23.336 L190.456,24.2 L190.456,35.864 L186.136,35.864 L186.136,42.704 L190.456,42.704 L190.456,59.912 C190.456,67.76 194.2,71.576 200.248,71.576 Z M213.588,71 L221.652,71 L221.652,54.368 C221.652,48.608 225.108,44.216 231.228,44.216 C231.804,44.216 232.74,44.288 233.676,44.36 L233.676,35.36 L232.668,35.36 C228.42,35.36 224.532,37.448 221.796,41.12 L221.652,41.12 L221.652,35.864 L213.588,35.864 L213.588,71 Z M242.408,30.68 C245.432,30.68 247.88,28.232 247.88,25.28 C247.88,22.4 245.432,19.952 242.408,19.952 C239.384,19.952 237.008,22.4 237.008,25.28 C237.008,28.232 239.384,30.68 242.408,30.68 Z M238.376,71 L246.44,71 L246.44,35.864 L238.376,35.864 L238.376,71 Z M254.956,71 L263.02,71 L263.02,54.368 C263.02,48.608 266.476,44.216 272.596,44.216 C273.172,44.216 274.108,44.288 275.044,44.36 L275.044,35.36 L274.036,35.36 C269.788,35.36 265.9,37.448 263.164,41.12 L263.02,41.12 L263.02,35.864 L254.956,35.864 L254.956,71 Z M310.344,53 C310.344,42.776 303.648,35.36 293.784,35.36 C283.488,35.36 276.144,42.632 276.144,53.432 C276.144,64.448 283.704,71.576 294.36,71.576 C301.92,71.576 306.312,68.768 309.264,64.952 L303.648,60.128 C301.848,62.36 298.968,64.232 294.792,64.232 C289.32,64.232 285.504,61.208 284.496,56.096 L310.128,56.096 C310.2,55.52 310.344,54.296 310.344,53 Z M293.712,42.632 C298.32,42.632 301.2,45.512 302.208,49.76 L284.64,49.76 C285.792,45.152 289.248,42.632 293.712,42.632 Z M331.1,71.576 C336.14,71.576 339.956,69.632 342.548,66.248 L342.62,66.248 L342.62,71 L350.324,71 L350.324,18.008 L342.332,18.008 L342.332,40.184 L342.26,40.184 C339.596,37.016 335.636,35.36 331.028,35.36 C321.38,35.36 314.036,42.992 314.036,53.576 C314.036,64.448 321.38,71.576 331.1,71.576 Z M332.324,64.232 C326.42,64.232 322.244,59.84 322.244,53.648 C322.244,46.88 326.78,42.632 332.396,42.632 C338.444,42.632 342.62,47.384 342.62,53.648 C342.62,59.984 338.084,64.232 332.324,64.232 Z" id="Nutrired" fill="#247134"></path>
                <g id="Group-Copy" transform="translate(41.789198, 45.500000) rotate(-13.000000) translate(-41.789198, -45.500000) translate(7.789198, 7.000000)">
                    <path d="M43.3310048,35.7969972 C51.2098815,31.5937005 56.4487979,24.136717 56.4487979,15.6382202 C56.4487979,8.41131953 52.6603492,1.93757454 46.6816434,-2.42266967 C45.8036688,1.04764957 44.7813514,6.06486399 37.8224115,12.5351282 C30.6983063,21.276181 34.9418387,30.7637645 43.3310048,35.7969972 Z" id="Combined-Shape" fill="#88E51A" transform="translate(45.329319, 16.687164) rotate(-74.000000) translate(-45.329319, -16.687164) "></path>
                    <path d="M36.2282319,79.7124015 C41.7848261,76.7480178 45.4795828,71.4889647 45.4795828,65.4953821 C45.4795828,60.3985953 42.8077715,55.8329732 38.5912767,52.7579019 C37.9720833,55.2053518 37.2510919,58.7437527 32.343285,63.30692 C27.318995,69.4715657 30.3117551,76.1627037 36.2282319,79.7124015 Z" id="Combined-Shape-Copy" fill="#B200EB" transform="translate(37.637547, 66.235152) rotate(81.000000) translate(-37.637547, -66.235152) "></path>
                    <ellipse id="Oval-2" fill="#FB0404" cx="18.649066" cy="38.0293321" rx="18.649066" ry="18.5672674"></ellipse>
                    <ellipse id="Oval-2-Copy" fill="#FB8F04" cx="56.9350572" cy="47.870274" rx="10.1015774" ry="10.0572698"></ellipse>
                </g>
            </g>
        </g>
    </g>
</svg>