<?xml version="1.0" encoding="UTF-8" standalone="no"?>
<svg width="153px" height="42px" viewBox="0 0 153 42" version="1.1" xmlns="http://www.w3.org/2000/svg" xmlns:xlink="http://www.w3.org/1999/xlink">
    <!-- Generator: Sketch 41.1 (35376) - http://www.bohemiancoding.com/sketch -->
    <title>Page 1</title>
    <desc>Created with Sketch.</desc>
    <defs>
        <polygon id="path-1" points="0 41.7870228 152.528781 41.7870228 152.528781 0.000212658228 0 0.000212658228"></polygon>
    </defs>
    <g id="Page-1" stroke="none" stroke-width="1" fill="none" fill-rule="evenodd">
        <g id="Desktop-HD" transform="translate(-92.000000, -17.000000)">
            <g id="Page-1" transform="translate(92.000000, 17.000000)">
                <path d="M80.2388312,24.0338354 C80.2388312,26.9802152 78.6148,28.4677595 76.2204562,28.4677595 C74.0465812,28.4677595 72.7800812,27.2003165 72.7800812,24.5293291 L72.7800812,16.5966456 L69.3397062,16.5966456 L69.3397062,24.9971772 C69.3397062,29.4321646 71.8992687,31.4976076 75.6700812,31.4976076 C77.5693,31.4976076 79.3033,30.7809494 80.40405,29.4321646 L80.40405,31.3051519 L83.6792062,31.3051519 L83.6792062,16.5966456 L80.2388312,16.5966456 L80.2388312,24.0338354 Z" id="Fill-1" fill="#4F4F4F"></path>
                <path d="M91.742625,28.660481 C90.4490313,28.660481 89.7058125,27.8895949 89.7058125,26.4573418 L89.7058125,19.4614177 L93.6418438,19.4614177 L93.6418438,16.7064304 L89.7058125,16.7064304 L89.7058125,13.346962 L86.2654375,13.346962 L86.2654375,26.5397468 C86.2654375,29.7902278 88.1099375,31.4978734 91.3298438,31.4978734 C92.5681875,31.4978734 93.8065313,31.1671899 94.632625,30.5058228 L93.6689375,28.0549367 C93.1461875,28.4680253 92.4576875,28.660481 91.742625,28.660481" id="Fill-3" fill="#4F4F4F"></path>
                <path d="M99.8336688,18.745557 L99.8336688,16.5966456 L96.5590438,16.5966456 L96.5590438,31.3051519 L99.9988875,31.3051519 L99.9988875,24.1715316 C99.9988875,21.1687975 101.650013,19.6264937 104.264825,19.6264937 C104.512919,19.6264937 104.760481,19.6541392 105.062762,19.7088987 L105.062762,16.4313038 C102.613169,16.4313038 100.82445,17.2032532 99.8336688,18.745557" id="Fill-5" fill="#4F4F4F"></path>
                <path d="M108.804462,10.0419342 C107.589494,10.0419342 106.604556,11.0276051 106.604556,12.2434785 C106.604556,13.4598835 107.589494,14.4455544 108.804462,14.4455544 C110.019431,14.4455544 111.004369,13.4598835 111.004369,12.2434785 C111.004369,11.0276051 110.019431,10.0419342 108.804462,10.0419342" id="Fill-7" fill="#4F4F4F"></path>
                <mask id="mask-2" fill="white">
                    <use xlink:href="#path-1"></use>
                </mask>
                <g id="Clip-10"></g>
                <polygon id="Fill-9" fill="#4F4F4F" mask="url(#mask-2)" points="107.072375 31.3050987 110.512219 31.3050987 110.512219 16.5965924 107.072375 16.5965924"></polygon>
                <path d="M122.053306,16.4314101 C119.603712,16.4314101 117.814994,17.2028278 116.824212,18.7456633 L116.824212,16.5967519 L113.549056,16.5967519 L113.549056,31.3052582 L116.9889,31.3052582 L116.9889,24.171638 C116.9889,21.1689038 118.640556,19.6266 121.255369,19.6266 C121.503462,19.6266 121.750494,19.6542456 122.053306,19.7090051 L122.053306,16.4314101 Z" id="Fill-11" fill="#4F4F4F" mask="url(#mask-2)"></path>
                <path d="M144.767803,28.5503772 C142.291116,28.5503772 140.391897,26.7603266 140.391897,23.9511114 C140.391897,21.1413646 142.291116,19.3513139 144.767803,19.3513139 C147.244491,19.3513139 149.144241,21.1413646 149.144241,23.9511114 C149.144241,26.7603266 147.244491,28.5503772 144.767803,28.5503772 L144.767803,28.5503772 Z M149.089522,10.8678456 L149.089522,18.4145544 C147.932991,17.065238 146.254241,16.4315165 144.355022,16.4315165 C140.088553,16.4315165 136.924428,19.3789595 136.924428,23.9511114 C136.924428,28.5227316 140.088553,31.4978203 144.355022,31.4978203 C144.481459,31.4978203 144.602584,31.4871873 144.726366,31.4813392 L144.726366,31.4978203 C146.672866,31.4829342 148.130616,31.0134911 149.227116,30.3180987 C149.491147,30.1500987 149.727553,29.9656177 149.951741,29.774757 C150.014428,29.7205291 150.074459,29.665238 150.134491,29.6099468 C150.304491,29.4531114 150.463334,29.2914911 150.609959,29.1245544 C150.649272,29.0798962 150.692303,29.0368329 150.730022,28.991643 C150.902147,28.7848329 151.057272,28.571643 151.198053,28.3563266 C151.235772,28.2989089 151.268178,28.2414911 151.303241,28.1835418 C151.408428,28.0128835 151.505116,27.841162 151.592241,27.6689089 C151.624116,27.607238 151.656522,27.5455671 151.685741,27.4838962 C151.789866,27.2653899 151.884428,27.0479468 151.964116,26.834757 C151.971553,26.8145544 151.976866,26.7948835 151.984303,26.774681 C152.058147,26.5726557 152.121366,26.3754152 152.176084,26.1834911 C152.190428,26.1345797 152.203709,26.0862 152.216991,26.0378203 C152.269053,25.843238 152.315272,25.6534405 152.351397,25.4774658 C152.351928,25.4737443 152.352991,25.4700228 152.354053,25.4663013 C152.394428,25.2679975 152.424178,25.0851114 152.448084,24.9171114 C152.448616,24.9133899 152.449678,24.9086051 152.450209,24.9048835 C152.450741,24.9016937 152.450741,24.9000987 152.451272,24.8974405 C152.470397,24.7576177 152.484741,24.6332127 152.495897,24.5205038 C152.495897,24.5178456 152.496428,24.515719 152.496428,24.5130608 C152.518209,24.2839215 152.525647,24.1185797 152.527772,24.0335165 L152.527772,24.0260734 C152.528834,23.9899215 152.528834,23.9644025 152.528834,23.9644025 L152.528834,10.8678456 L149.089522,10.8678456 Z" id="Fill-12" fill="#4F4F4F" mask="url(#mask-2)"></path>
                <path d="M63.3701563,24.859481 L55.770625,14.2271013 L55.770625,14.2271013 L55.7100625,14.1431013 L55.5044688,13.8549494 C55.5012813,13.8506962 55.498625,13.8469747 55.4954375,13.8427215 L54.4494063,12.3812278 L53.8012813,12.3812278 L51.9849375,12.3812278 L50.8230938,12.3812278 L50.8230938,13.7778608 L50.8230938,14.2271013 L50.8230938,31.1770253 L54.3219063,31.1770253 L54.3219063,18.5419367 L62.6338438,30.3072532 C62.9132813,30.6948228 63.2160938,30.9670253 63.5401563,31.1233291 C63.86475,31.2817595 64.3248125,31.3609747 64.9219375,31.3609747 C65.464875,31.3609747 65.9164375,31.2519873 66.2760938,31.0313544 C66.63575,30.8123165 66.8153125,30.5188481 66.8153125,30.1504177 L66.8153125,12.3812278 L63.3701563,12.3812278 L63.3701563,24.859481 Z" id="Fill-13" fill="#4F4F4F" mask="url(#mask-2)"></path>
                <path d="M129.646888,19.4629595 C128.692231,19.4629595 127.84595,19.7691873 127.105919,20.381643 C126.365888,20.9946304 125.898388,21.8558962 125.70395,22.9665038 L130.376825,22.9665038 C130.960669,22.9665038 131.413294,22.8229595 131.735231,22.5353392 C132.056106,22.2482506 132.217075,21.8659975 132.217075,21.3869848 C132.217075,20.8516177 131.978013,20.3959975 131.50095,20.0233139 C131.023888,19.6495671 130.406044,19.4629595 129.646888,19.4629595 M129.646887,28.4504278 C131.184856,28.4504278 132.768512,27.9256937 134.353762,26.6837696 L135.663294,29.455238 C133.832606,30.8726051 131.739481,31.5802253 129.383387,31.5802253 C127.1447,31.5802253 125.362887,30.8959975 124.039012,29.5275418 C122.715137,28.1590861 122.0532,26.4025291 122.0532,24.2584025 C122.0532,22.0951367 122.734262,20.2625544 124.097981,18.7595924 C125.460106,17.2566304 127.319481,16.5054152 129.675575,16.5054152 C131.389387,16.5054152 132.8397,16.9504025 134.027575,17.8409089 C135.214919,18.7308835 135.808856,19.9510101 135.808856,21.5018203 C135.808856,22.6889848 135.434325,23.6698709 134.684731,24.4450101 C133.935137,25.2201494 132.781262,25.607719 131.223637,25.607719 L125.791606,25.607719 C126.200137,27.5025038 127.485231,28.4504278 129.646887,28.4504278" id="Fill-14" fill="#4F4F4F" mask="url(#mask-2)"></path>
                <path d="M33.8637875,10.9048481 L33.3978813,11.8006709 L33.395225,11.806519 C33.8653813,12.3227468 34.3026,12.8660886 34.6925375,13.4386709 C37.925725,18.1974304 38.1669125,24.497962 35.3082563,29.4837342 C35.2089125,29.6559873 35.0861938,29.8170759 34.8636,30.1201139 L34.6909438,30.3551013 L37.5596938,34.5933797 L38.2768813,33.6039873 C43.1792563,26.8356076 43.323225,17.653557 38.6344125,10.756519 C38.03835,9.8793038 37.3211625,9.01856962 36.4653188,8.14401266 C35.5675063,8.10413924 34.4736625,9.80753165 33.8637875,10.9048481" id="Fill-15" fill="#C40755" mask="url(#mask-2)"></path>
                <path d="M37.5596406,34.5933266 L34.6914219,30.3550481 L31.8125781,26.1018835 C29.8788281,23.2549215 29.6142656,19.5653013 31.1208906,16.4716557 L33.3951719,11.8064658 L33.3978281,11.8006177 L33.8637344,10.9047949 L33.8637344,10.9047949 C34.4736094,9.80747848 35.5674531,8.10408608 36.4652656,8.14395949 C36.4673906,8.14395949 36.4700469,8.14342785 36.4727031,8.14342785 L36.1072031,7.77818734 C35.4070156,7.09608608 34.7450781,6.51021266 34.0640156,6.0008962 C33.4907969,5.57185823 32.7566094,5.42937722 32.0750156,5.59525063 C31.4444219,5.7488962 30.8967031,6.16092152 30.4966719,6.86801013 L26.8363594,14.3806937 C24.5827969,19.0086684 24.9785781,24.5266177 27.8728281,28.7850987 L34.1888594,38.1207949 C34.6478594,38.8034278 35.4032969,39.1718582 36.1693594,39.1718582 C36.6262344,39.1718582 37.0894844,39.0405418 37.4958906,38.7678076 L37.5001406,38.7646177 C38.5812344,38.0288203 38.8712969,36.5465924 38.1434844,35.4556557 L37.5596406,34.5933266 Z" id="Fill-16" fill="#EF0056" mask="url(#mask-2)"></path>
                <path d="M6.66872813,17.1228152 L7.67704063,17.0877266 L7.68341563,17.0877266 C7.90175938,16.4237013 8.15888438,15.7756253 8.46488438,15.1541316 C11.0143531,9.99610633 16.3767906,6.68554937 22.1201344,6.72276456 C22.3193531,6.72489114 22.5196344,6.75253671 22.8925719,6.79719494 L23.1821031,6.8317519 L25.4574469,2.24737215 L24.2440719,2.1091443 C15.9438219,1.16866329 7.88529063,5.56111899 4.19257188,13.0397772 C3.72241563,13.9903595 3.32663438,15.0387646 2.98716563,16.2147646 C3.39357188,17.0164861 5.41391563,17.1313215 6.66872813,17.1228152" id="Fill-17" fill="#1FBA07" mask="url(#mask-2)"></path>
                <path d="M25.4574469,2.24731899 L23.1821031,6.83169873 L20.8982594,11.4320278 C19.3730406,14.5176987 16.2939156,16.5640025 12.8609781,16.7734709 L7.68341563,17.0876734 L7.67704063,17.0876734 L6.66872813,17.122762 L6.66872813,17.122762 C5.41391563,17.1312684 3.39357188,17.0164329 2.98716563,16.215243 C2.98610313,16.2125848 2.98397813,16.2109899 2.98291563,16.2088633 L2.84479063,16.7064835 C2.59616563,17.652281 2.41182188,18.5172684 2.30397813,19.3615215 C2.21313438,20.0718 2.45007188,20.7820785 2.92979063,21.2935215 C3.37391563,21.7677494 4.00185313,22.0420785 4.81360313,22.0426101 L13.1505094,21.5354203 C18.2850406,21.2212177 22.8904469,18.1615975 25.1705719,13.5447873 L30.1845094,3.44830633 C30.5526656,2.71250886 30.5016656,1.87304051 30.1244781,1.20582532 C29.8997594,0.807622785 29.5576344,0.468432911 29.1198844,0.248863291 L29.1151031,0.246736709 C27.9431656,-0.333288608 26.5109156,0.143597468 25.9206969,1.31428101 L25.4574469,2.24731899 Z" id="Fill-18" fill="#12EF00" mask="url(#mask-2)"></path>
                <path d="M25.8343156,37.5574633 L25.2998781,36.7009823 L25.2961594,36.6956658 C24.6129719,36.8386785 23.9234094,36.9396911 23.2322531,36.9854127 C17.4942219,37.3565013 11.9474406,34.3649316 9.10737812,29.3690582 C9.00909687,29.1957418 8.93312812,29.0080709 8.78490937,28.6630329 L8.67015937,28.3945519 L3.56537812,28.7156658 L4.05253437,29.8363747 C7.39037812,37.4995139 15.2215344,42.285919 23.5393156,41.7457671 C24.5975656,41.6771848 25.7025656,41.4958937 26.8904406,41.2018937 C27.3802531,40.4485519 26.4696906,38.6404253 25.8343156,37.5574633" id="Fill-19" fill="#EB6509" mask="url(#mask-2)"></path>
                <path d="M3.565325,28.7157722 L8.67010625,28.3946582 L13.7934812,28.072481 C17.2258875,27.8507848 20.5366375,29.4962278 22.4347937,32.3660506 L25.2961062,36.6957722 L25.299825,36.7010886 L25.8342625,37.5575696 L25.8342625,37.5575696 C26.4696375,38.6405316 27.3802,40.4486582 26.8903875,41.202 C26.8887937,41.2041266 26.8882625,41.2067848 26.8866687,41.2089114 L27.3871062,41.0791899 C28.3295437,40.8218734 29.1699812,40.5491392 29.9541062,40.2200506 C30.61445,39.9435949 31.1106375,39.3832405 31.3130437,38.7112405 C31.5011062,38.0897468 31.4251375,37.4081772 31.0192625,36.7042785 L26.4106687,29.7338734 C23.5706062,25.4413671 18.6193562,22.9803797 13.4842937,23.3137215 L2.2403875,24.0186835 C1.419075,24.0675949 0.71835625,24.5317215 0.32948125,25.1920253 C0.097325,25.5865063 -0.0248625,26.0522278 0.00435625,26.5413418 L0.0048875,26.5466582 C0.08935625,27.8523797 1.21773125,28.8550633 2.5262,28.7811646 L3.565325,28.7157722 Z" id="Fill-20" fill="#F88203" mask="url(#mask-2)"></path>
            </g>
        </g>
    </g>
</svg>